<svg width="320" height="193" viewBox="0 0 320 193" fill="none" xmlns="http://www.w3.org/2000/svg">
<g opacity="0.8" filter="url(#filter0_bdd_214_1155)">
<path d="M296 168.286L24 168.286C19.5817 168.286 16 164.705 16 160.286L16 31.207C16 27.96 17.9626 25.0351 20.9673 23.8042L57.3885 8.8835C58.351 8.4892 59.3811 8.28638 60.4212 8.28638L262.451 8.28638C263.561 8.28638 264.659 8.51736 265.675 8.96466L299.224 23.7361C302.126 25.0142 304 27.8863 304 31.0578V160.286C304 164.705 300.418 168.286 296 168.286Z" fill="white" fill-opacity="0.1" shape-rendering="crispEdges"/>
<path d="M24 167.786L296 167.786C300.142 167.786 303.5 164.429 303.5 160.286V31.0578C303.5 28.0845 301.743 25.3919 299.022 24.1937L265.474 9.42227C264.521 9.00293 263.492 8.78638 262.451 8.78638L60.4212 8.78638C59.4461 8.78638 58.4803 8.97652 57.578 9.34618L21.1568 24.2668C18.3399 25.4208 16.5 28.163 16.5 31.207L16.5 160.286C16.5 164.429 19.8579 167.786 24 167.786Z" stroke="url(#paint0_linear_214_1155)" shape-rendering="crispEdges"/>
</g>
<g filter="url(#filter1_d_214_1155)">
<rect x="262" y="172" width="204" height="7.99999" transform="rotate(-180 262 172)" fill="#003CFF"/>
</g>
<g filter="url(#filter2_d_214_1155)">
<rect x="308" y="108" width="24" height="7.99999" transform="rotate(90 308 108)" fill="#003CFF"/>
</g>
<g filter="url(#filter3_d_214_1155)">
<rect x="20" y="36" width="24" height="7.99999" transform="rotate(90 20 36)" fill="#003CFF"/>
</g>
<defs>
<filter id="filter0_bdd_214_1155" x="0" y="0.286377" width="320" height="192" filterUnits="userSpaceOnUse" color-interpolation-filters="sRGB">
<feFlood flood-opacity="0" result="BackgroundImageFix"/>
<feGaussianBlur in="BackgroundImageFix" stdDeviation="4"/>
<feComposite in2="SourceAlpha" operator="in" result="effect1_backgroundBlur_214_1155"/>
<feColorMatrix in="SourceAlpha" type="matrix" values="0 0 0 0 0 0 0 0 0 0 0 0 0 0 0 0 0 0 127 0" result="hardAlpha"/>
<feOffset dy="8"/>
<feGaussianBlur stdDeviation="8"/>
<feComposite in2="hardAlpha" operator="out"/>
<feColorMatrix type="matrix" values="0 0 0 0 0 0 0 0 0 0 0 0 0 0 0 0 0 0 0.32 0"/>
<feBlend mode="normal" in2="effect1_backgroundBlur_214_1155" result="effect2_dropShadow_214_1155"/>
<feColorMatrix in="SourceAlpha" type="matrix" values="0 0 0 0 0 0 0 0 0 0 0 0 0 0 0 0 0 0 127 0" result="hardAlpha"/>
<feOffset/>
<feGaussianBlur stdDeviation="4"/>
<feComposite in2="hardAlpha" operator="out"/>
<feColorMatrix type="matrix" values="0 0 0 0 0 0 0 0 0 0 0 0 0 0 0 0 0 0 1 0"/>
<feBlend mode="normal" in2="effect2_dropShadow_214_1155" result="effect3_dropShadow_214_1155"/>
<feBlend mode="normal" in="SourceGraphic" in2="effect3_dropShadow_214_1155" result="shape"/>
</filter>
<filter id="filter1_d_214_1155" x="50" y="156" width="220" height="24" filterUnits="userSpaceOnUse" color-interpolation-filters="sRGB">
<feFlood flood-opacity="0" result="BackgroundImageFix"/>
<feColorMatrix in="SourceAlpha" type="matrix" values="0 0 0 0 0 0 0 0 0 0 0 0 0 0 0 0 0 0 127 0" result="hardAlpha"/>
<feOffset/>
<feGaussianBlur stdDeviation="4"/>
<feComposite in2="hardAlpha" operator="out"/>
<feColorMatrix type="matrix" values="0 0 0 0 0 0 0 0 0 0.235294 0 0 0 0 1 0 0 0 1 0"/>
<feBlend mode="normal" in2="BackgroundImageFix" result="effect1_dropShadow_214_1155"/>
<feBlend mode="normal" in="SourceGraphic" in2="effect1_dropShadow_214_1155" result="shape"/>
</filter>
<filter id="filter2_d_214_1155" x="292" y="100" width="24" height="40" filterUnits="userSpaceOnUse" color-interpolation-filters="sRGB">
<feFlood flood-opacity="0" result="BackgroundImageFix"/>
<feColorMatrix in="SourceAlpha" type="matrix" values="0 0 0 0 0 0 0 0 0 0 0 0 0 0 0 0 0 0 127 0" result="hardAlpha"/>
<feOffset/>
<feGaussianBlur stdDeviation="4"/>
<feComposite in2="hardAlpha" operator="out"/>
<feColorMatrix type="matrix" values="0 0 0 0 0 0 0 0 0 0.235294 0 0 0 0 1 0 0 0 1 0"/>
<feBlend mode="normal" in2="BackgroundImageFix" result="effect1_dropShadow_214_1155"/>
<feBlend mode="normal" in="SourceGraphic" in2="effect1_dropShadow_214_1155" result="shape"/>
</filter>
<filter id="filter3_d_214_1155" x="4" y="28" width="24" height="40" filterUnits="userSpaceOnUse" color-interpolation-filters="sRGB">
<feFlood flood-opacity="0" result="BackgroundImageFix"/>
<feColorMatrix in="SourceAlpha" type="matrix" values="0 0 0 0 0 0 0 0 0 0 0 0 0 0 0 0 0 0 127 0" result="hardAlpha"/>
<feOffset/>
<feGaussianBlur stdDeviation="4"/>
<feComposite in2="hardAlpha" operator="out"/>
<feColorMatrix type="matrix" values="0 0 0 0 0 0 0 0 0 0.235294 0 0 0 0 1 0 0 0 1 0"/>
<feBlend mode="normal" in2="BackgroundImageFix" result="effect1_dropShadow_214_1155"/>
<feBlend mode="normal" in="SourceGraphic" in2="effect1_dropShadow_214_1155" result="shape"/>
</filter>
<linearGradient id="paint0_linear_214_1155" x1="160" y1="168.286" x2="160" y2="8.28638" gradientUnits="userSpaceOnUse">
<stop stop-color="#4A4A4A" stop-opacity="0.8"/>
<stop offset="0.51" stop-color="#003CFF"/>
<stop offset="1" stop-color="#4A4A4A" stop-opacity="0.8"/>
</linearGradient>
</defs>
</svg>
