<svg width="33" height="33" viewBox="0 0 33 33" fill="none" xmlns="http://www.w3.org/2000/svg">
<path fill-rule="evenodd" clip-rule="evenodd" d="M16.8838 32.0312C8.04679 32.0312 0.883789 24.8612 0.883789 16.0156C0.883789 7.16998 8.04679 0 16.8838 0C25.7208 0 32.8838 7.16998 32.8838 16.0156C32.8838 24.8612 25.7208 32.0312 16.8838 32.0312ZM24.8778 16.2348L17.3818 4.0039L9.88379 16.2358L17.3818 20.593L24.8778 16.2348ZM24.8838 17.6332L17.3818 21.9884L9.88379 17.6342L17.3818 28.0223L24.8838 17.6332Z" fill="#003CFF"/>
<path d="M17.3818 4.00391V12.8825L24.8788 16.2358L17.3818 4.00391ZM17.3818 21.9894V28.0223L24.8838 17.6332L17.3818 21.9894Z" fill="black" fill-opacity="0.298"/>
<path d="M17.3818 20.593L24.8788 16.2358L17.3818 12.8845V20.593Z" fill="black" fill-opacity="0.801"/>
<path d="M9.88379 16.2358L17.3818 20.593V12.8845L9.88379 16.2358Z" fill="black" fill-opacity="0.298"/>
</svg>
