<svg width="14" height="16" viewBox="0 0 14 16" fill="none" xmlns="http://www.w3.org/2000/svg">
<path fill-rule="evenodd" clip-rule="evenodd" d="M6.76246 0L2.0957 2.63692V12.8665L6.76246 15.5825L11.484 12.8665V2.63692L6.76246 0ZM6.78984 0.778987L3.26764 2.88234L6.78802 4.92753L10.3084 2.88234L6.78984 0.778987ZM2.877 3.5059V7.0118L6.00673 5.26657L2.877 3.5059ZM7.18049 6.03738V9.54419L10.3093 7.79896L7.18049 6.03738ZM10.7009 3.5059V7.0118L7.57114 5.26657L10.7009 3.5059ZM6.39737 6.03647V9.54328L3.26764 7.79806L6.39737 6.03647ZM2.877 8.39979V12.4665L6.78984 14.8026L10.7018 12.4656V8.39797L6.78893 10.5177L2.877 8.39979Z" fill="white"/>
<path d="M0 14.4374V11.8989H0.823416V14.0317L2.88244 15.089V16L0 14.4374ZM14 1.97908V4.51763H13.1766V2.38479L11.1176 1.32841V0.41748L14 1.97908Z" fill="white"/>
</svg>
