<svg width="52" height="32" viewBox="0 0 52 32" fill="none" xmlns="http://www.w3.org/2000/svg">
<path fill-rule="evenodd" clip-rule="evenodd" d="M12 28C5.37225 28 0 22.6278 0 16C0 9.37225 5.37225 4 12 4C18.6278 4 24 9.37225 24 16C24 22.6278 18.6278 28 12 28ZM17.9955 16.1642L12.3735 7L6.75 16.165L12.3735 19.4298L17.9955 16.1642ZM18 17.212L12.3735 20.4753L6.75 17.2128L12.3735 24.9963L18 17.212Z" fill="#003CFF"/>
<path d="M12.3734 6.99902V13.6515L17.9962 16.164L12.3734 6.99902ZM12.3734 20.475V24.9953L17.9999 17.211L12.3734 20.475Z" fill="black" fill-opacity="0.298"/>
<path d="M12.3734 19.4291L17.9962 16.1643L12.3734 13.6533V19.4291Z" fill="black" fill-opacity="0.801"/>
<path d="M6.75 16.1643L12.3735 19.4291V13.6533L6.75 16.1643Z" fill="black" fill-opacity="0.298"/>
<circle cx="36" cy="16" r="16" fill="#47A7FF"/>
<path fill-rule="evenodd" clip-rule="evenodd" d="M35.7625 8L31.0957 10.6369V20.8665L35.7625 23.5825L40.484 20.8665V10.6369L35.7625 8ZM35.7898 8.77899L32.2676 10.8823L35.788 12.9275L39.3084 10.8823L35.7898 8.77899ZM31.877 11.5059V15.0118L35.0067 13.2666L31.877 11.5059ZM36.1805 14.0374V17.5442L39.3093 15.799L36.1805 14.0374ZM39.7009 11.5059V15.0118L36.5711 13.2666L39.7009 11.5059ZM35.3974 14.0365V17.5433L32.2676 15.7981L35.3974 14.0365ZM31.877 16.3998V20.4665L35.7898 22.8026L39.7018 20.4656V16.398L35.7889 18.5177L31.877 16.3998Z" fill="white"/>
<path d="M29 22.4379V19.8993H29.8234V22.0322L31.8824 23.0895V24.0004L29 22.4379ZM43 9.97957V12.5181H42.1766V10.3853L40.1176 9.3289V8.41797L43 9.97957Z" fill="white"/>
</svg>
