<svg width="18" height="24" viewBox="0 0 18 24" fill="none" xmlns="http://www.w3.org/2000/svg">
<path d="M6.57179 15.64V14.872C6.57179 13.784 6.78512 12.888 7.21179 12.184C7.65979 11.48 8.37446 10.8933 9.35579 10.424L9.89979 10.168C10.8598 9.72 11.5958 9.24 12.1078 8.728C12.6198 8.216 12.8758 7.53333 12.8758 6.68C12.8758 6.06133 12.7158 5.53867 12.3958 5.112C12.0971 4.664 11.6705 4.32267 11.1158 4.088C10.5611 3.85333 9.91046 3.736 9.16379 3.736C8.39579 3.736 7.70246 3.864 7.08379 4.12C6.48646 4.376 6.00646 4.76 5.64379 5.272C5.30246 5.784 5.13179 6.424 5.13179 7.192V7.896H0.971789V7.256C0.971789 5.784 1.33446 4.51467 2.05979 3.448C2.78512 2.38133 3.76646 1.57067 5.00379 1.016C6.24112 0.439999 7.62779 0.151999 9.16379 0.151999C10.6785 0.151999 12.0225 0.429332 13.1958 0.983999C14.3905 1.53867 15.3291 2.30666 16.0118 3.288C16.6945 4.26933 17.0358 5.4 17.0358 6.68C17.0358 7.96 16.8011 9.016 16.3318 9.848C15.8625 10.6587 15.2651 11.32 14.5398 11.832C13.8358 12.3227 13.1105 12.7493 12.3638 13.112L11.8198 13.368C11.4358 13.5387 11.1691 13.752 11.0198 14.008C10.8705 14.2427 10.7958 14.5947 10.7958 15.064V15.64H6.57179ZM8.81179 23.448C7.95846 23.448 7.23312 23.1707 6.63579 22.616C6.05979 22.04 5.77179 21.304 5.77179 20.408C5.77179 19.512 6.05979 18.7867 6.63579 18.232C7.23312 17.656 7.95846 17.368 8.81179 17.368C9.68646 17.368 10.4118 17.656 10.9878 18.232C11.5638 18.7867 11.8518 19.512 11.8518 20.408C11.8518 21.304 11.5638 22.04 10.9878 22.616C10.4118 23.1707 9.68646 23.448 8.81179 23.448Z" fill="#003CFF"/>
</svg>
