<svg width="32" height="32" viewBox="0 0 32 32" fill="none" xmlns="http://www.w3.org/2000/svg">
<circle cx="16" cy="16" r="16" fill="#47A7FF"/>
<path fill-rule="evenodd" clip-rule="evenodd" d="M15.7625 8L11.0958 10.6369V20.8665L15.7625 23.5825L20.484 20.8665V10.6369L15.7625 8ZM15.7899 8.77899L12.2677 10.8823L15.7881 12.9275L19.3085 10.8823L15.7899 8.77899ZM11.8771 11.5059V15.0118L15.0068 13.2666L11.8771 11.5059ZM16.1806 14.0374V17.5442L19.3094 15.799L16.1806 14.0374ZM19.7009 11.5059V15.0118L16.5712 13.2666L19.7009 11.5059ZM15.3974 14.0365V17.5433L12.2677 15.7981L15.3974 14.0365ZM11.8771 16.3998V20.4665L15.7899 22.8026L19.7018 20.4656V16.398L15.789 18.5177L11.8771 16.3998Z" fill="white"/>
<path d="M9 22.4379V19.8993H9.82342V22.0322L11.8824 23.0895V24.0004L9 22.4379ZM23 9.97957V12.5181H22.1766V10.3853L20.1176 9.3289V8.41797L23 9.97957Z" fill="white"/>
</svg>
